<svg width="195" height="238" viewBox="0 0 195 238" fill="none" xmlns="http://www.w3.org/2000/svg">
<path d="M145.373 1.72952C143.795 4.9151 141.13 8.965 131.485 23.0161C120.235 39.4133 118.064 42.5988 113.747 49.2417C106.199 60.8728 99.6365 71.6642 95.0727 79.9616C94.1353 81.6655 93.1238 83.4929 92.8031 84.0362L92.2357 85.0239L92.3591 83.9127C92.6798 80.7024 92.7045 79.8875 92.4578 77.8625C91.8904 72.8002 88.9794 66.8488 84.4156 61.4407C79.9011 56.082 71.9329 48.8219 66.851 45.4634C55.3058 37.8081 40.9483 36.0301 24.3705 40.2035C21.3609 40.969 15.0702 43.0681 12.8253 44.0558C12.0359 44.4262 11.0245 44.6485 10.3091 44.6485C9.27294 44.6485 9.10026 44.7226 9.10026 45.1177C9.10026 45.4881 8.21216 46.0561 5.20251 47.6118C0.910058 49.8096 -0.17539 50.5505 0.0219639 51.0938C0.0959717 51.2913 1.37877 51.9827 2.83426 52.6495C17.4878 59.1441 31.6973 71.5655 43.7606 88.4318C45.9068 91.4198 47.1896 92.5557 52.5922 96.2105C61.6212 102.285 69.4907 104.508 76.0774 102.804C78.643 102.162 82.516 99.9641 86.0191 97.1736C86.1918 97.0501 85.9697 97.6922 85.5504 98.6306C80.9619 108.854 77.9276 117.324 76.1267 125.152C74.6465 131.474 74.0298 137.623 73.8078 147.624C73.4871 164.12 75.584 184.715 80.1725 209.731C81.998 219.658 85.6737 236.92 86.0684 237.339C86.2164 237.512 97.515 238.451 99.5625 238.5C99.7352 238.5 99.6365 237.784 99.2418 236.352C93.3952 215.312 88.1653 187.728 86.3151 167.997C85.5997 160.342 85.1557 149.279 85.4517 146.414C85.5997 144.834 85.6737 144.661 86.1671 144.661C86.9072 144.661 89.2261 145.822 92.2604 147.698C100.303 152.662 105.828 153.921 113.747 152.563C119.964 151.501 128.648 147.822 136.295 142.982C139.379 141.056 139.699 140.759 142.635 137.426C154.254 124.189 167.798 113.497 181.613 106.681C185.214 104.903 186.966 104.162 193.133 101.791C195.674 100.804 195.649 100.409 192.886 99.0504C189.803 97.544 182.723 94.7536 178.208 93.2966C151.639 84.6782 128.278 85.987 110.861 97.0501C107.753 99.0504 102.671 102.705 99.6612 105.125C95.7634 108.286 96.0595 108.187 96.9969 106.088C98.5264 102.804 145.447 4.56938 146.631 2.19872C147.544 0.371323 147.717 -0.147263 147.446 -0.320114C146.755 -0.764618 146.483 -0.492981 145.373 1.72952Z" fill="#BA3B18"/>
</svg>
