<svg width="217" height="228" viewBox="0 0 217 228" fill="none" xmlns="http://www.w3.org/2000/svg">
<path d="M143.438 106.25C170 106.25 191.25 127.5 191.25 154.062C191.25 163.413 188.594 172.125 183.919 179.562L216.644 212.5L201.875 227.269L168.725 194.65C161.394 199.219 152.681 201.875 143.438 201.875C116.875 201.875 95.625 180.625 95.625 154.062C95.625 127.5 116.875 106.25 143.438 106.25ZM143.438 127.5C136.393 127.5 129.636 130.299 124.655 135.28C119.674 140.261 116.875 147.018 116.875 154.062C116.875 161.107 119.674 167.864 124.655 172.845C129.636 177.826 136.393 180.625 143.438 180.625C150.482 180.625 157.239 177.826 162.22 172.845C167.201 167.864 170 161.107 170 154.062C170 147.018 167.201 140.261 162.22 135.28C157.239 130.299 150.482 127.5 143.438 127.5ZM185.938 0C187.346 0 188.698 0.559709 189.694 1.556C190.69 2.55228 191.25 3.90354 191.25 5.3125V104.231C185.088 98.3875 177.969 93.6063 170 90.3125V28.6875L138.125 41.0125V85C130.688 85.7437 123.463 87.55 116.875 90.3125V41.1187L74.375 26.2437V150.131V154.062C74.375 160.862 75.3313 167.45 77.1375 173.613L63.75 168.938L7.0125 190.931L5.3125 191.25C3.90354 191.25 2.55228 190.69 1.556 189.694C0.559709 188.698 0 187.346 0 185.938V25.2875C0 22.8438 1.59375 20.9313 3.825 20.1875L63.75 0L127.5 22.3125L184.238 0.31875L185.938 0ZM21.25 36.7625V162.669L53.125 150.344V26.0312L21.25 36.7625Z" fill="#BA3B18"/>
</svg>
