<svg width="70" height="70" viewBox="0 0 70 70" fill="none" xmlns="http://www.w3.org/2000/svg">
<g clip-path="url(#clip0_200_99)">
<path d="M17.024 70H52.969C62.37 70 69.993 62.377 69.993 52.976V17.024C70 7.644 62.405 0.028 53.025 0H16.975C7.595 0.028 0 7.644 0 17.024V52.969C0 62.377 7.623 70 17.024 70Z" fill="#100943"/>
<path d="M53.025 0H35C35 19.327 50.673 35 70 35V17.024C70 7.644 62.405 0.028 53.025 0Z" fill="#ED143B"/>
<path d="M43.239 33.404H22.561V25.221H43.239C44.45 25.221 45.29 25.431 45.71 25.802C46.13 26.173 46.396 26.852 46.396 27.846V30.786C46.396 31.836 46.137 32.515 45.71 32.886C45.29 33.25 44.45 33.404 43.239 33.404ZM44.66 17.5H13.79V52.5H22.561V41.111H38.724L46.389 52.5H56.21L47.754 41.062C50.869 40.6 52.269 39.641 53.424 38.073C54.579 36.498 55.16 33.978 55.16 30.625V28C55.16 26.005 54.95 24.43 54.579 23.226C54.208 22.022 53.585 20.972 52.689 20.027C51.744 19.131 50.694 18.508 49.434 18.088C48.174 17.71 46.599 17.5 44.66 17.5Z" fill="white"/>
</g>
<defs>
<clipPath id="clip0_200_99">
<rect width="70" height="70" fill="white"/>
</clipPath>
</defs>
</svg>
