<svg width="216" height="220" viewBox="0 0 216 220" fill="none" xmlns="http://www.w3.org/2000/svg">
<path d="M108 0C48.3387 0 0 49.2129 0 109.953C0 170.693 48.3387 219.906 108 219.906C167.661 219.906 216 170.693 216 109.953C216 49.2129 167.661 0 108 0ZM135.871 177.344C135.871 193.127 123.198 205.94 107.608 205.719C92.3226 205.497 80.129 192.507 80.129 176.9V157.925L87.8371 154.023C94.3694 150.698 101.555 154.777 103.035 161.338L104.255 166.703C105.169 170.782 110.874 170.782 111.789 166.703L113.008 161.338C114.489 154.777 121.631 150.654 128.206 154.023L135.915 157.925V177.344H135.871ZM148.152 188.561C149.11 184.97 149.806 181.245 149.806 177.344V158.058C155.99 152.56 160.432 145.865 161.695 138.328C162.435 133.939 158.342 130.126 153.987 131.545C142.708 135.225 125.942 137.353 108 137.353C90.0581 137.353 73.3355 135.225 62.0129 131.545C57.7016 130.17 53.5645 133.895 54.3048 138.328C55.5677 145.865 60.0097 152.56 66.1936 158.058V177.344C66.1936 181.245 66.8903 184.97 67.8484 188.561C39.9774 173.753 20.9032 144.092 20.9032 109.953C20.9032 61.0506 59.9661 21.2812 108 21.2812C156.034 21.2812 195.097 61.0506 195.097 109.953C195.097 144.092 176.023 173.753 148.152 188.561ZM73.1613 74.4844C65.4532 74.4844 59.2258 80.8244 59.2258 88.6719C59.2258 96.5193 65.4532 102.859 73.1613 102.859C80.8694 102.859 87.0968 96.5193 87.0968 88.6719C87.0968 80.8244 80.8694 74.4844 73.1613 74.4844ZM142.839 74.4844C135.131 74.4844 128.903 80.8244 128.903 88.6719C128.903 96.5193 135.131 102.859 142.839 102.859C150.547 102.859 156.774 96.5193 156.774 88.6719C156.774 80.8244 150.547 74.4844 142.839 74.4844Z" fill="#BA3B18"/>
</svg>
