<svg width="102" height="92" viewBox="0 0 102 92" fill="none" xmlns="http://www.w3.org/2000/svg">
<path d="M48.1944 36.8L53.7742 21.9052L64.2944 18.4L53.7788 14.8948L48.1944 0L42.61 14.8948L32.0944 18.4L42.61 21.9052L48.1944 36.8Z" fill="#030104"/>
<path d="M27.6001 48.3C27.6001 44.1324 28.8375 40.25 30.9535 37.0024C29.8541 36.869 28.7363 36.8 27.6001 36.8C25.0747 36.8 22.6321 37.1358 20.3091 37.7752C8.60212 40.9722 0.00012207 51.6764 0.00012207 64.4C0.00012207 79.6352 12.3603 92 27.6001 92C41.6623 92 53.2635 81.489 54.9839 67.9006C52.8863 68.6136 50.6415 69 48.3001 69C36.8737 69 27.6001 59.7264 27.6001 48.3Z" fill="#030104"/>
<path d="M66.5943 36.8L61.0099 51.6948L50.4943 55.2L61.0099 58.7052L66.5943 73.6L72.1787 58.7052L82.6943 55.2L72.1787 51.6948L66.5943 36.8Z" fill="#030104"/>
<path d="M93.5824 24.9734L89.5942 13.8L85.606 24.9734L78.0942 27.6L85.606 30.2266L89.5942 41.4L93.5824 30.2266L101.094 27.6L93.5824 24.9734Z" fill="#030104"/>
</svg>
